<svg xmlns="http://www.w3.org/2000/svg" viewBox="0 0 62.97 63.52"><defs><style>.cls-1{fill:#e7001d;}.cls-2{fill:none;stroke:#e7001d;stroke-linecap:round;stroke-linejoin:round;stroke-width:2px;}</style></defs><title>icon_airport</title><g id="レイヤー_2" data-name="レイヤー 2"><g id="レイヤー_1-2" data-name="レイヤー 1"><polygon class="cls-1" points="24.25 30.57 10.59 33.6 11.04 35.62 24.25 32.69 24.25 30.57"/><polygon class="cls-1" points="38.72 32.69 51.93 35.62 52.38 33.6 38.72 30.57 38.72 32.69"/><path class="cls-2" d="M31.48,62.52h1.1l5-17.35V10.93L36.2,4.15S35.55,1,31.48,1s-4.71,3.15-4.71,3.15l-1.39,6.78V45.17l5,17.35Z"/><polyline class="cls-2" points="25.38 23.24 1 36.08 1 40.27 2.88 40.27 25.38 36.08"/><polyline class="cls-2" points="37.59 23.24 61.97 36.08 61.97 40.27 60.09 40.27 37.59 36.08"/><path class="cls-2" d="M26.38,49.87l-10.5,7.87v3.75h1.54c.71,0,11.46-3.12,11.46-3.12"/><path class="cls-2" d="M36.7,49.87l10.5,7.87v3.75H45.66c-.71,0-11.46-3.12-11.46-3.12"/></g></g></svg>