<svg xmlns="http://www.w3.org/2000/svg" viewBox="0 0 40.41 64.47"><defs><style>.cls-1{fill:none;stroke:#e7001d;stroke-linecap:round;stroke-linejoin:round;stroke-width:2px;}</style></defs><title>icon_getting_around</title><g id="レイヤー_2" data-name="レイヤー 2"><g id="レイヤー_1-2" data-name="レイヤー 1"><path class="cls-1" d="M24.28,53.27c-1.47,3.71-2.58,8.86,1.66,10,6.51,1.73,7.44-8.06,7.44-8.06Z"/><path class="cls-1" d="M38.94,40.59c1-5.06.92-13.71-5.16-15.86-1.5-.53-7.17-1.88-9.45,8.1-1.66,7.25.93,16,.93,16l9.2,1.95S38.29,44,38.94,40.59Z"/><path class="cls-1" d="M14.35,30.56c1.07,3.83,1.64,9.08-2.7,9.76C5,41.36,5.1,31.53,5.1,31.53Z"/><path class="cls-1" d="M1.09,16.42c-.44-5.15.52-13.74,6.8-15.24,1.54-.37,7.32-1.12,8.55,9C17.33,17.6,13.84,26,13.84,26L4.49,27S1.38,19.86,1.09,16.42Z"/></g></g></svg>