<svg xmlns="http://www.w3.org/2000/svg" viewBox="0 0 72.37 55.09"><defs><style>.cls-1{fill:none;stroke:#e7001d;stroke-miterlimit:10;stroke-width:2px;}</style></defs><title>icon_stay</title><g id="レイヤー_2" data-name="レイヤー 2"><g id="レイヤー_1-2" data-name="レイヤー 1"><path class="cls-1" d="M51.29,16.28s4-4.05.66-5.94S36.19,8.56,36.19,8.56s-12.39-.1-15.77,1.78.66,5.94.66,5.94A82.53,82.53,0,0,1,36.19,15,82.48,82.48,0,0,1,51.29,16.28Z"/><polyline class="cls-1" points="36.19 36.52 4.32 36.52 4.32 54.09 12.47 54.09 12.47 45.31 36.19 45.31"/><polyline class="cls-1" points="36.19 36.52 4.32 36.52 4.32 54.09 12.47 54.09 12.47 45.31 36.19 45.31"/><polyline class="cls-1" points="36.19 36.52 68.05 36.52 68.05 54.09 59.91 54.09 59.91 45.31 36.19 45.31"/><path class="cls-1" d="M68.05,36.52c2.14-1.88,3.32-4,3.32-6.16,0-8.31-14.17-15-35.18-15S1,22.05,1,30.36c0,2.2,1.19,4.28,3.32,6.16"/><polyline class="cls-1" points="36.19 1 8.21 1 8.21 20.6"/><polyline class="cls-1" points="36.19 1 64.17 1 64.17 20.6"/></g></g></svg>