<svg xmlns="http://www.w3.org/2000/svg" viewBox="0 0 69.87 67.33"><defs><style>.cls-1{fill:none;stroke:#e7001d;stroke-linecap:round;stroke-linejoin:round;stroke-width:2px;}.cls-2{fill:#e7001d;}</style></defs><title>icon_itineraries</title><g id="レイヤー_2" data-name="レイヤー 2"><g id="レイヤー_1-2" data-name="レイヤー 1"><line class="cls-1" x1="34.93" y1="1.84" x2="34.93" y2="19.03"/><polygon class="cls-1" points="34.94 1 51.22 12.93 68.87 1 68.87 55.59 51.22 66.33 34.94 54.76 18.65 66.33 1 55.59 1 1 18.65 12.93 34.94 1"/><line class="cls-1" x1="51.22" y1="12.93" x2="51.22" y2="24.83"/><line class="cls-1" x1="51.22" y1="45.4" x2="51.22" y2="65.4"/><line class="cls-1" x1="34.93" y1="40.63" x2="34.93" y2="54.03"/><circle class="cls-2" cx="18.65" cy="35.01" r="4.32"/><polygon class="cls-2" points="55.41 37.07 52.7 34.4 55.37 31.68 53.88 30.21 51.21 32.93 48.49 30.26 47.02 31.73 49.74 34.41 47.07 37.13 48.54 38.6 51.22 35.88 53.94 38.55 55.41 37.07"/><path class="cls-2" d="M43.36,34.33a1.59,1.59,0,0,1-.6-.11L42.22,34a1.64,1.64,0,0,1-.94-2.13,1.66,1.66,0,0,1,2.13-.94l.54.21a1.65,1.65,0,0,1-.59,3.18Zm-16.85,0a1.65,1.65,0,0,1-.59-3.18l.54-.21a1.66,1.66,0,0,1,2.13.94A1.64,1.64,0,0,1,27.65,34l-.54.21A1.59,1.59,0,0,1,26.51,34.33Zm8.15-3.16A1.64,1.64,0,0,1,34.07,28l.27-.11a1.63,1.63,0,0,1,1.19,0l.27.11a1.64,1.64,0,0,1-.87,3.15A1.23,1.23,0,0,1,34.66,31.17Z"/></g></g></svg>