<svg xmlns="http://www.w3.org/2000/svg" viewBox="0 0 52.37 63.87"><defs><style>.cls-1,.cls-2{fill:none;stroke:#e7001d;stroke-width:2px;}.cls-1{stroke-miterlimit:10;}.cls-2{stroke-linecap:round;stroke-linejoin:round;}.cls-3{fill:#e7001d;}</style></defs><title>icon_passport_1</title><g id="レイヤー_2" data-name="レイヤー 2"><g id="レイヤー_1-2" data-name="レイヤー 1"><circle class="cls-1" cx="22.33" cy="19.08" r="11.32"/><line class="cls-1" x1="11.61" y1="15.45" x2="33" y2="15.45"/><line class="cls-1" x1="11.61" y1="22.43" x2="33" y2="22.43"/><path class="cls-1" d="M22.3,29.66a17.83,17.83,0,0,1,0-21"/><path class="cls-1" d="M22.33,29.66a17.83,17.83,0,0,0,0-21"/><rect class="cls-1" x="1" y="1" width="42.67" height="61.87" rx="6" ry="6"/><path class="cls-2" d="M45.37,1a6,6,0,0,1,6,6V56.87a6,6,0,0,1-6,6"/><path class="cls-3" d="M10,40.58v3.09H8.26V34.88h3.15c2,0,3.28.93,3.28,2.82s-1.24,2.88-3.28,2.88Zm1.11-1.51c1.24,0,1.76-.43,1.76-1.37s-.52-1.3-1.76-1.3H10v2.67Z"/><path class="cls-3" d="M14.86,43.67l3.05-8.79h1.71l3.06,8.79h-1.9L20.25,42H17.3l-.53,1.67Zm2.92-3.17h2l-1-3.09Z"/><path class="cls-3" d="M28.08,37.16a1.78,1.78,0,0,0-1.73-.89c-.81,0-1.24.37-1.24,1s.56,1,1.73,1.29c1.84.46,2.67,1.14,2.67,2.7s-1,2.56-3,2.56a3.85,3.85,0,0,1-3.38-1.44l1.36-.94a2.2,2.2,0,0,0,1.91.88c1,0,1.36-.45,1.36-1s-.37-.95-1.79-1.32c-1.74-.46-2.6-1.29-2.6-2.74s.91-2.47,3-2.47a3.42,3.42,0,0,1,3.09,1.44Z"/><path class="cls-3" d="M35.4,37.16a1.78,1.78,0,0,0-1.73-.89c-.8,0-1.23.37-1.23,1s.56,1,1.73,1.29c1.83.46,2.66,1.14,2.66,2.7s-1,2.56-3,2.56a3.88,3.88,0,0,1-3.39-1.44l1.36-.94a2.21,2.21,0,0,0,1.91.88c1,0,1.37-.45,1.37-1s-.37-.95-1.8-1.32c-1.73-.46-2.6-1.29-2.6-2.74s.92-2.47,3-2.47a3.4,3.4,0,0,1,3.08,1.44Z"/><path class="cls-3" d="M10,53.45v3.1H8.26V47.76h3.15c2,0,3.28.93,3.28,2.81s-1.24,2.88-3.28,2.88ZM11.15,52c1.24,0,1.76-.44,1.76-1.38s-.52-1.3-1.76-1.3H10V52Z"/><path class="cls-3" d="M18.87,56.66c-2,0-3.36-1.2-3.36-3.88V51.53c0-2.72,1.39-3.89,3.36-3.89s3.38,1.17,3.38,3.89v1.25C22.25,55.46,20.86,56.66,18.87,56.66Zm-1.58-3.88c0,1.68.55,2.38,1.58,2.38s1.59-.7,1.59-2.38V51.53c0-1.68-.56-2.38-1.59-2.38s-1.58.7-1.58,2.38Z"/><path class="cls-3" d="M28.5,56.55l-1.58-3.46H25.49v3.46H23.71V47.76h3.15c2,0,3.28.9,3.28,2.69a2.33,2.33,0,0,1-1.5,2.35l1.82,3.75Zm-1.81-5c1.06,0,1.67-.23,1.67-1.14s-.61-1.18-1.67-1.18h-1.2v2.32Z"/><path class="cls-3" d="M37.43,47.76v1.51H35v7.28H33.22V49.27H30.8V47.76Z"/></g></g></svg>