<svg xmlns="http://www.w3.org/2000/svg" viewBox="0 0 85.04 42.52"><defs><style>.cls-1{fill:none;}.cls-2{fill:#231815;}.cls-3{fill:#e50012;}</style></defs><title>アセット 1</title><g id="レイヤー_2" data-name="レイヤー 2"><g id="レイヤー_1-2" data-name="レイヤー 1"><rect class="cls-1" width="85.04" height="42.52"/><path class="cls-2" d="M56.11,9v4.19A2,2,0,0,1,54,15.43c-1.58,0-2-.89-2.11-2.14h1.35c0,.45.09,1.17.76,1.17s.72-.82.75-1.28V9Z"/><path class="cls-2" d="M57,12.17a1.19,1.19,0,0,1,.6-1.09,2.52,2.52,0,0,1,1.28-.28c.88,0,1.86.32,1.86,1.64v2.38c0,.22,0,.35.06.48H59.67a4,4,0,0,1,0-.58h0a1.44,1.44,0,0,1-1.34.71,1.29,1.29,0,0,1-1.43-1.32,1.52,1.52,0,0,1,.93-1.39,4.22,4.22,0,0,1,1.71-.23v-.41a.56.56,0,0,0-.6-.54.58.58,0,0,0-.58.63Zm1.05,1.76a.62.62,0,0,0,.64.63c.72,0,.75-.8.75-1.31C59,13.24,58.09,13.23,58.09,13.93Z"/><path class="cls-2" d="M63.06,11.44h0a1.46,1.46,0,0,1,1.17-.64,2.11,2.11,0,0,1,2,2.32c0,1.12-.6,2.31-1.88,2.31a1.43,1.43,0,0,1-1.33-.75h0V17h-1.3V11.8c0-.29,0-.58,0-.87H63ZM64,14.56c.84,0,.94-.77.94-1.44s-.1-1.45-.94-1.45-.94.84-.94,1.45S63.3,14.56,64,14.56Z"/><path class="cls-2" d="M67,12.17a1.18,1.18,0,0,1,.59-1.09,2.58,2.58,0,0,1,1.29-.28c.88,0,1.86.32,1.86,1.64v2.38a3.63,3.63,0,0,0,.06.48H69.65a4,4,0,0,1-.05-.58h0a1.44,1.44,0,0,1-1.34.71,1.29,1.29,0,0,1-1.43-1.32,1.52,1.52,0,0,1,.93-1.39,4.19,4.19,0,0,1,1.71-.23v-.41a.56.56,0,0,0-.6-.54.6.6,0,0,0-.59.63Zm1,1.76a.61.61,0,0,0,.64.63c.72,0,.75-.8.75-1.31C69,13.24,68.07,13.23,68.07,13.93Z"/><path class="cls-2" d="M73,11.44v0a1.49,1.49,0,0,1,1.34-.66,1.58,1.58,0,0,1,1.44,1,3,3,0,0,1,.09.7V15.3H74.57V12.67c0-.47-.14-1-.78-1-.41,0-.77.37-.79,1V15.3H71.7V10.93H73Z"/><path class="cls-2" d="M76.93,15.3V14.14H78V15.3Z"/><path class="cls-2" d="M49.45,24.83V18.55h3.74v.52H50v2.26h3v.52H50v2.46h3.3v.52Z"/><path class="cls-2" d="M55.1,24.83h-.52V21.45c0-.34,0-.69,0-1h.54l0,.64,0,0a1.52,1.52,0,0,1,1.37-.8A1.55,1.55,0,0,1,58,22.1v2.73H57.5V22a1.08,1.08,0,0,0-1.14-1.2c-.87,0-1.26.73-1.26,1.51Z"/><path class="cls-2" d="M62.25,24.19v0a1.79,1.79,0,0,1-1.5.81C59.44,25,59,23.73,59,22.63s.49-2.3,1.79-2.3a1.75,1.75,0,0,1,1.5.8V18.55h.52v5.3c0,.34,0,.68,0,1h-.54Zm-1.42-3.38c-1,0-1.32.93-1.32,1.76s.24,1.91,1.24,1.91,1.49-.94,1.49-1.94S61.84,20.81,60.83,20.81Z"/><path class="cls-2" d="M64.61,24.83h-.52V18.55h.52Z"/><path class="cls-2" d="M66.32,22.77c0,.93.44,1.71,1.51,1.71a1.29,1.29,0,0,0,1.26-1h.55a1.84,1.84,0,0,1-2,1.52c-1.3,0-1.91-1.12-1.91-2.31a2.07,2.07,0,0,1,2-2.32c1.46,0,2,1.07,2,2.44Zm2.8-.48a1.4,1.4,0,0,0-1.41-1.48,1.44,1.44,0,0,0-1.38,1.48Z"/><path class="cls-2" d="M72.13,20.33c.82,0,1.52.29,1.59,1.21h-.57c-.05-.55-.54-.73-1.08-.73s-1,.19-1,.71.84.58,2,1a1.06,1.06,0,0,1,.74,1c0,1-.92,1.42-1.84,1.42-.76,0-1.62-.36-1.64-1.32h.56c0,.65.62.84,1.21.84s1.14-.26,1.14-.87-.69-.73-1.38-.88-1.38-.37-1.38-1.18S71.36,20.33,72.13,20.33Z"/><path class="cls-2" d="M76.3,20.33c.83,0,1.52.29,1.59,1.21h-.56c0-.55-.54-.73-1.08-.73s-1,.19-1,.71.84.58,2,1a1,1,0,0,1,.74,1c0,1-.91,1.42-1.83,1.42-.76,0-1.63-.36-1.65-1.32h.57c0,.65.62.84,1.21.84s1.14-.26,1.14-.87-.69-.73-1.39-.88-1.38-.37-1.38-1.18S75.53,20.33,76.3,20.33Z"/><path class="cls-2" d="M41.65,26.55c2.06,0,3.24,1.06,3.24,3.14s-1.18,3.14-3.24,3.14H40V26.55Zm.14,5.76c1.77,0,2.49-1,2.49-2.62,0-1.86-1.09-2.68-2.87-2.62h-.89v5.24Z"/><path class="cls-2" d="M46.71,27.2h-.6v-.65h.6Zm0,1.26v4.37h-.52V28.46Z"/><path class="cls-2" d="M49.52,28.33c.83,0,1.52.29,1.6,1.21h-.57c0-.55-.54-.73-1.08-.73s-1,.19-1,.7.84.59,2,1a1.06,1.06,0,0,1,.73,1c0,1-.91,1.43-1.83,1.43-.76,0-1.63-.36-1.64-1.32h.56c0,.65.62.84,1.21.84s1.14-.26,1.14-.87-.69-.73-1.39-.89-1.38-.36-1.38-1.17S48.76,28.33,49.52,28.33Z"/><path class="cls-2" d="M55.18,29.8c0-.67-.47-1-1.19-1s-1.3.83-1.3,1.83.5,1.84,1.3,1.84a1.1,1.1,0,0,0,1.19-1h.57A1.56,1.56,0,0,1,54,33c-1.31,0-1.92-1.13-1.92-2.32a2.07,2.07,0,0,1,2-2.31,1.55,1.55,0,0,1,1.68,1.47Z"/><path class="cls-2" d="M60.7,30.64a2.05,2.05,0,1,1-4.07,0,2.05,2.05,0,1,1,4.07,0Zm-2-1.83c-1.05,0-1.47,1-1.47,1.83s.42,1.84,1.47,1.84,1.47-1,1.47-1.84S59.72,28.81,58.67,28.81Z"/><path class="cls-2" d="M61.61,28.46l1.5,3.64,1.46-3.64h.57l-1.73,4.37h-.59L61,28.46Z"/><path class="cls-2" d="M66.09,30.77c0,.93.44,1.71,1.51,1.71a1.29,1.29,0,0,0,1.26-1h.55a1.83,1.83,0,0,1-2,1.53c-1.31,0-1.92-1.13-1.92-2.32a2.06,2.06,0,0,1,2-2.31c1.46,0,2,1.07,2,2.44Zm2.81-.48a1.4,1.4,0,0,0-1.42-1.48,1.44,1.44,0,0,0-1.37,1.48Z"/><path class="cls-2" d="M71.14,32.83h-.52V29.44c0-.34,0-.68,0-1h.54l0,.64h0a1.13,1.13,0,0,1,1-.77,4.47,4.47,0,0,1,.52,0v.5a3.16,3.16,0,0,0-.32,0c-.77,0-1.18.56-1.2,1.39Z"/><path class="cls-2" d="M73.87,28.46l1.47,3.65,1.46-3.65h.57L75,34.5h-.57l.66-1.67-1.81-4.37Z"/><path class="cls-2" d="M77.33,32.83v-.75H78v.75Z"/><path class="cls-3" d="M32.84,24a4,4,0,0,1,2.52-3,4.19,4.19,0,0,1,1-.3,14.48,14.48,0,0,0-28.94.64c0,.24,0,.48,0,.72a2.82,2.82,0,0,1,.27-.24A2.72,2.72,0,0,1,8,23.13a2.57,2.57,0,0,1,1-1,4.4,4.4,0,0,1,0,2.19,3.52,3.52,0,0,1-.87,1.4A14.48,14.48,0,0,0,30,33.27l-.13-.15a3.39,3.39,0,0,1-.52-2.95A3.07,3.07,0,0,1,32,31.57l0,.05a14.48,14.48,0,0,0,4-7.3A4.45,4.45,0,0,1,32.84,24ZM29.05,18.9a3.88,3.88,0,0,1,1.14-1.68,2.66,2.66,0,0,1,.28,1.27,2.57,2.57,0,0,1,.91-.92,3.86,3.86,0,0,1,.06,2,3.22,3.22,0,0,1-1.9,2.1A2.91,2.91,0,0,1,29.05,18.9Zm-7,2.85a6,6,0,0,1,3.12,0A3.89,3.89,0,0,1,23.8,23.2a3.94,3.94,0,0,1,2,.37,6,6,0,0,1-2.53,1.83,4.94,4.94,0,0,1-4.32-.61A4.51,4.51,0,0,1,22.06,21.75ZM10.42,23.57a3.94,3.94,0,0,1,2-.37A3.89,3.89,0,0,1,11,21.75a6,6,0,0,1,3.12,0,5,5,0,0,1,3.14,3A4.51,4.51,0,0,1,13,25.4,6,6,0,0,1,10.42,23.57Zm6.41,6.49a6,6,0,0,1-2.52,1.84,3.81,3.81,0,0,1,.26-2,3.85,3.85,0,0,1-1.81.86,6,6,0,0,1,1-3,4.94,4.94,0,0,1,3.85-2A4.45,4.45,0,0,1,16.83,30.06Zm-.65-9.79a6,6,0,0,1,1-3,4,4,0,0,1,1,1.76,3.92,3.92,0,0,1,.95-1.76,6,6,0,0,1,1,3,5,5,0,0,1-1.91,3.92A4.48,4.48,0,0,1,16.18,20.27Zm7.25,10.5a3.85,3.85,0,0,1-1.81-.86,3.81,3.81,0,0,1,.26,2,6.07,6.07,0,0,1-2.52-1.84,4.94,4.94,0,0,1-.75-4.3,4.48,4.48,0,0,1,3.85,2A6,6,0,0,1,23.43,30.77Zm.33-2.11a2.81,2.81,0,0,1,1.36-.25,2.77,2.77,0,0,1-.95-1,4.16,4.16,0,0,1,2.14,0,3.37,3.37,0,0,1,2.15,2.08,3.05,3.05,0,0,1-3,.42A4.09,4.09,0,0,1,23.76,28.66Zm4.4,4.46a4.15,4.15,0,0,1-1.73,1.26A2.77,2.77,0,0,1,26.61,33a2.75,2.75,0,0,1-1.24.59,4.19,4.19,0,0,1,.67-2,3.37,3.37,0,0,1,2.64-1.4A3.08,3.08,0,0,1,28.16,33.12Zm.87-4a3.08,3.08,0,0,1-1.31-2.69,4.26,4.26,0,0,1,.65-2A2.71,2.71,0,0,1,29,25.57a2.71,2.71,0,0,1,.66-1.21,4.26,4.26,0,0,1,.65,2A3.37,3.37,0,0,1,29,29.09Zm3.53.83a3.34,3.34,0,0,1-3-.42,3.07,3.07,0,0,1,2.15-2.08,4.16,4.16,0,0,1,2.14,0,2.69,2.69,0,0,1-1,1,2.81,2.81,0,0,1,1.36.25A4.09,4.09,0,0,1,32.56,29.92Zm-.93,4.46A2.77,2.77,0,0,0,31.45,33a2.8,2.8,0,0,0,1.24.59,4.21,4.21,0,0,0-.64-2,15.3,15.3,0,0,1-2,1.65A4.17,4.17,0,0,0,31.63,34.38ZM6.48,23.52a3.18,3.18,0,0,0,.43,3,3.35,3.35,0,0,0,1.26-.81A14.2,14.2,0,0,1,7.49,22,4.12,4.12,0,0,0,6.48,23.52Zm1.74,7.34A2.82,2.82,0,0,0,9,29.7a4.18,4.18,0,0,0-2.16.35A3.15,3.15,0,0,0,5,32.5a3.45,3.45,0,0,0,3.06,0A4.39,4.39,0,0,0,9.63,30.9,2.73,2.73,0,0,0,8.22,30.86ZM40.18,14a3.41,3.41,0,0,0,1.36-1.2,5.6,5.6,0,0,0-2.81-.25,4,4,0,0,0-3.08,2.48,4.48,4.48,0,0,0,3.84.9,5.38,5.38,0,0,0,2.43-1.44A3.54,3.54,0,0,0,40.18,14Zm-3.11,8a3.63,3.63,0,0,0,1.1-1.44,5.45,5.45,0,0,0-1.78,0c0,.22,0,.42,0,.64a14.71,14.71,0,0,1-.33,3.06,6.28,6.28,0,0,0,.69-.24,5.5,5.5,0,0,0,2.1-1.89A3.5,3.5,0,0,0,37.07,22.05Z"/></g></g></svg>