<svg xmlns="http://www.w3.org/2000/svg" viewBox="0 0 100 48.65"><defs><style>.cls-1{fill:#fff;}</style></defs><title>アセット 1</title><g id="レイヤー_2" data-name="レイヤー 2"><g id="レイヤー_1-2" data-name="レイヤー 1"><g id="Layer_2" data-name="Layer 2"><g id="Nav"><g id="Logo"><path class="cls-1" d="M16.31,1.35v1.5a.8.8,0,0,1-.7.8c-1.48.14-2.24.28-2.55.71s-.45,1.7-.45,3.7V28c0,7.31-1,11.06-3.94,14.36a67,67,0,0,1-6.54,6.18.81.81,0,0,1-1.08-.2L.13,47a.8.8,0,0,1,.18-1.07C2.78,44.07,6,40.43,7,36.25a37.3,37.3,0,0,0,.42-7.84V8c0-2-.07-3.19-.45-3.68s-1.14-.58-2.71-.73a.78.78,0,0,1-.71-.79V1.35a.79.79,0,0,1,.79-.8H15.54A.8.8,0,0,1,16.31,1.35ZM44.58.55h-3a.8.8,0,0,0-.8.8V20.22L27.78.92A.8.8,0,0,0,27.1.58h-4a.79.79,0,0,0-.79.8V26.09a.79.79,0,0,0,.79.8h3a.8.8,0,0,0,.8-.8V7.26l12.92,19.3a.8.8,0,0,0,.64.34h4.06a.79.79,0,0,0,.79-.8V1.38a.79.79,0,0,0-.79-.79Zm27.31,0H50.11a.8.8,0,0,0-.8.8V3.74a.8.8,0,0,0,.8.8h8.6V26.13a.79.79,0,0,0,.8.79h3a.79.79,0,0,0,.79-.79V4.52H71.9a.79.79,0,0,0,.8-.79V1.34a.8.8,0,0,0-.8-.8ZM100,13.75a16.58,16.58,0,0,1-.88,5.5,12.07,12.07,0,0,1-2.64,4.4,12.32,12.32,0,0,1-4.25,2.88,16.49,16.49,0,0,1-11.42,0,12,12,0,0,1-4.26-2.88,12.21,12.21,0,0,1-2.62-4.37A16.36,16.36,0,0,1,73,13.77a16.34,16.34,0,0,1,.89-5.5,12.25,12.25,0,0,1,2.62-4.38A12.05,12.05,0,0,1,80.81,1,16.46,16.46,0,0,1,92.22,1a12.24,12.24,0,0,1,4.25,2.87,12.09,12.09,0,0,1,2.65,4.38h0a16.58,16.58,0,0,1,.88,5.5ZM94.71,9.57a9.18,9.18,0,0,0-1.9-3.08A8.33,8.33,0,0,0,90,4.57a9.46,9.46,0,0,0-7,0,8.29,8.29,0,0,0-2.8,1.92,8.53,8.53,0,0,0-1.89,3.08,12.17,12.17,0,0,0-.69,4.22A12.13,12.13,0,0,0,78.29,18a8.68,8.68,0,0,0,1.88,3.08A8.34,8.34,0,0,0,83,23a9.46,9.46,0,0,0,7,0,8.34,8.34,0,0,0,2.81-1.91A9,9,0,0,0,94.71,18a11.88,11.88,0,0,0,.71-4.22A11.87,11.87,0,0,0,94.71,9.57Z"/><path class="cls-1" d="M61.84,33.8c-13.4,0-25.3,2.09-32.75,5.28H94.6C87.14,35.89,75.25,33.8,61.84,33.8Z"/></g></g></g></g></g></svg>